<svg width="16" height="16" viewBox="0 0 16 16" fill="none" xmlns="http://www.w3.org/2000/svg">
<path d="M12.6667 4.66667V2.66667C12.6667 2.29872 12.3679 2 12 2H3.33333C2.59745 2 2 2.59745 2 3.33333C2 4.06922 2.59745 4.66667 3.33333 4.66667H13.3333C13.7013 4.66667 14 4.96539 14 5.33333V8H12C11.2641 8 10.6667 8.59745 10.6667 9.33333C10.6667 10.0692 11.2641 10.6667 12 10.6667H14C14.3679 10.6667 14.6667 10.3679 14.6667 10V8.66667C14.6667 8.29872 14.3679 8 14 8" stroke="#0F172A" stroke-width="1.33333" stroke-linecap="round" stroke-linejoin="round"/>
<path d="M2 3.33333V12.6667C2 13.4025 2.59745 14 3.33333 14H13.3333C13.7013 14 14 13.7013 14 13.3333V10.6667" stroke="#0F172A" stroke-width="1.33333" stroke-linecap="round" stroke-linejoin="round"/>
</svg>
