<svg width="20" height="20" viewBox="0 0 20 20" fill="none" xmlns="http://www.w3.org/2000/svg">
<path d="M15.8333 5.83333V3.33333C15.8333 2.8731 15.4602 2.5 15 2.5H4.16667C3.24681 2.5 2.5 3.24681 2.5 4.16667C2.5 5.08652 3.24681 5.83333 4.16667 5.83333H16.6667C17.1269 5.83333 17.5 6.20643 17.5 6.66667V10H15C14.0801 10 13.3333 10.7468 13.3333 11.6667C13.3333 12.5865 14.0801 13.3333 15 13.3333H17.5C17.9602 13.3333 18.3333 12.9602 18.3333 12.5V10.8333C18.3333 10.3731 17.9602 10 17.5 10" stroke="#E6EEF8" stroke-width="1.66667" stroke-linecap="round" stroke-linejoin="round"/>
<path d="M2.5 4.16666V15.8333C2.5 16.7538 3.24619 17.5 4.16667 17.5H16.6667C17.1269 17.5 17.5 17.1269 17.5 16.6667V13.3333" stroke="#E6EEF8" stroke-width="1.66667" stroke-linecap="round" stroke-linejoin="round"/>
</svg>
