<svg width="20" height="20" viewBox="0 0 20 20" fill="none" xmlns="http://www.w3.org/2000/svg">
<path d="M2.475 10.7667C1.97458 11.0673 1.66795 11.6079 1.66667 12.1917V14.8917C1.66795 15.4755 1.97458 16.016 2.475 16.3167L4.975 17.8167C5.50322 18.134 6.16345 18.134 6.69167 17.8167L10 15.8333V11.25L5.83333 8.75L2.475 10.7667M5.83333 13.75L1.88333 11.375M5.83333 13.75L10 11.25M5.83333 13.75V18.0583M10 11.25V15.8333L13.3083 17.8167C13.8366 18.134 14.4968 18.134 15.025 17.8167L17.525 16.3167C18.0254 16.016 18.3321 15.4755 18.3333 14.8917V12.1917C18.3321 11.6079 18.0254 11.0673 17.525 10.7667L14.1667 8.75L5.83333 13.75M10 16.25L5.83333 13.75M10 16.25L13.95 13.875M14.1667 13.75V18.0583" stroke="#E6EEF8" stroke-width="1.66667" stroke-linecap="round" stroke-linejoin="round"/>
<path d="M6.64167 3.68333C6.14125 3.98398 5.83461 4.52454 5.83333 5.10833V8.75L10 11.25L14.1667 8.75V5.10833C14.1654 4.52454 13.8588 3.98398 13.3583 3.68333L10.8583 2.18333C10.3301 1.86597 9.66989 1.86597 9.14167 2.18333L6.64167 3.68333M10 6.66666L6.05 4.29166M10 6.66666L13.95 4.29166M10 11.25V6.66666" stroke="#E6EEF8" stroke-width="1.66667" stroke-linecap="round" stroke-linejoin="round"/>
</svg>
