<svg width="16" height="16" viewBox="0 0 16 16" fill="none" xmlns="http://www.w3.org/2000/svg">
<path d="M1.98001 8.61333C1.57968 8.85385 1.33437 9.2863 1.33334 9.75333V11.9133C1.33437 12.3804 1.57968 12.8128 1.98001 13.0533L3.98001 14.2533C4.40259 14.5072 4.93077 14.5072 5.35334 14.2533L8.00001 12.6667V9L4.66668 7L1.98001 8.61333M4.66668 11L1.50668 9.1M4.66668 11L8.00001 9M4.66668 11V14.4467M8.00001 9V12.6667L10.6467 14.2533C11.0693 14.5072 11.5974 14.5072 12.02 14.2533L14.02 13.0533C14.4203 12.8128 14.6657 12.3804 14.6667 11.9133V9.75333C14.6657 9.2863 14.4203 8.85385 14.02 8.61333L11.3333 7L4.66668 11M8.00001 13L4.66668 11M8.00001 13L11.16 11.1M11.3333 11V14.4467" stroke="#0F172A" stroke-width="1.33333" stroke-linecap="round" stroke-linejoin="round"/>
<path d="M5.31332 2.94666C4.91299 3.18718 4.66768 3.61963 4.66666 4.08666V6.99999L7.99999 8.99999L11.3333 6.99999V4.08666C11.3323 3.61963 11.087 3.18718 10.6867 2.94666L8.68666 1.74666C8.26408 1.49277 7.7359 1.49277 7.31332 1.74666L5.31332 2.94666M7.99999 5.33332L4.83999 3.43332M7.99999 5.33332L11.16 3.43332M7.99999 8.99999V5.33332" stroke="#0F172A" stroke-width="1.33333" stroke-linecap="round" stroke-linejoin="round"/>
</svg>
