<svg width="16" height="16" viewBox="0 0 16 16" fill="none" xmlns="http://www.w3.org/2000/svg">
<path d="M10.6667 14V12.6667C10.6667 11.1949 9.47181 9.99999 8.00004 9.99999H4.00004C2.52827 9.99999 1.33337 11.1949 1.33337 12.6667V14M10.6667 2.08533C11.8428 2.39024 12.6642 3.45164 12.6642 4.66666C12.6642 5.88168 11.8428 6.94308 10.6667 7.24799M14.6667 14V12.6667C14.6658 11.4514 13.8434 10.3905 12.6667 10.0867" stroke="#0F172A" stroke-width="1.33333" stroke-linecap="round" stroke-linejoin="round"/>
<path d="M3.33337 4.66667C3.33337 6.13844 4.52827 7.33333 6.00004 7.33333C7.47181 7.33333 8.66671 6.13844 8.66671 4.66667C8.66671 3.19489 7.47181 2 6.00004 2C4.52827 2 3.33337 3.19489 3.33337 4.66667V4.66667" stroke="#0F172A" stroke-width="1.33333" stroke-linecap="round" stroke-linejoin="round"/>
</svg>
