<svg width="16" height="16" viewBox="0 0 16 16" fill="none" xmlns="http://www.w3.org/2000/svg">
<path d="M7.33333 14.4867C7.74587 14.7248 8.25413 14.7248 8.66667 14.4867L13.3333 11.82C13.7454 11.5821 13.9995 11.1425 14 10.6667V5.33333C13.9995 4.85747 13.7454 4.41793 13.3333 4.18L8.66667 1.51333C8.25413 1.27516 7.74587 1.27516 7.33333 1.51333L2.66667 4.18C2.25455 4.41793 2.00049 4.85747 2 5.33333V10.6667C2.00049 11.1425 2.25455 11.5821 2.66667 11.82L7.33333 14.4867M8 14.6667V8" stroke="#0F172A" stroke-width="1.33333" stroke-linecap="round" stroke-linejoin="round"/>
<path d="M2.19336 4.66666L8.00003 8L13.8067 4.66666M5.00003 2.84666L11 6.28" stroke="#0F172A" stroke-width="1.33333" stroke-linecap="round" stroke-linejoin="round"/>
</svg>
