<svg width="16" height="16" viewBox="0 0 16 16" fill="none" xmlns="http://www.w3.org/2000/svg">
<path d="M6.44731 2.75732C6.52342 1.95655 7.19593 1.34494 8.00031 1.34494C8.80469 1.34494 9.47719 1.95655 9.55331 2.75732C9.59811 3.26395 9.88708 3.71693 10.3276 3.97111C10.7682 4.22529 11.3049 4.24875 11.766 4.03399C12.4968 3.70218 13.3601 3.97908 13.7617 4.67406C14.1632 5.36904 13.9718 6.25526 13.3193 6.72266C12.9031 7.01469 12.6553 7.49122 12.6553 7.99966C12.6553 8.50809 12.9031 8.98462 13.3193 9.27666C13.9718 9.74405 14.1632 10.6303 13.7617 11.3253C13.3601 12.0202 12.4968 12.2971 11.766 11.9653C11.3049 11.7506 10.7682 11.774 10.3276 12.0282C9.88708 12.2824 9.59811 12.7354 9.55331 13.242C9.47719 14.0428 8.80469 14.6544 8.00031 14.6544C7.19593 14.6544 6.52342 14.0428 6.44731 13.242C6.40258 12.7352 6.11352 12.282 5.6728 12.0278C5.23207 11.7736 4.69507 11.7503 4.23397 11.9653C3.50314 12.2971 2.63981 12.0202 2.2383 11.3253C1.83678 10.6303 2.02814 9.74405 2.68064 9.27666C3.09684 8.98462 3.34461 8.50809 3.34461 7.99966C3.34461 7.49122 3.09684 7.01469 2.68064 6.72266C2.02909 6.25505 1.83824 5.36962 2.2393 4.67513C2.64036 3.98064 3.50265 3.70338 4.23331 4.03399C4.69434 4.24875 5.23113 4.22529 5.67167 3.97111C6.1122 3.71693 6.40117 3.26395 6.44597 2.75732" stroke="#0F172A" stroke-width="1.33333" stroke-linecap="round" stroke-linejoin="round"/>
<path d="M6 8C6 9.10383 6.89617 10 8 10C9.10383 10 10 9.10383 10 8C10 6.89617 9.10383 6 8 6C6.89617 6 6 6.89617 6 8V8" stroke="#0F172A" stroke-width="1.33333" stroke-linecap="round" stroke-linejoin="round"/>
</svg>
