<svg width="20" height="20" viewBox="0 0 20 20" fill="none" xmlns="http://www.w3.org/2000/svg">
<path d="M8.05917 3.44669C8.15431 2.44573 8.99494 1.68121 10.0004 1.68121C11.0059 1.68121 11.8465 2.44573 11.9417 3.44669C11.9977 4.07998 12.3589 4.6462 12.9096 4.96392C13.4602 5.28165 14.1312 5.31098 14.7075 5.04252C15.621 4.62777 16.7002 4.97389 17.2021 5.84261C17.704 6.71134 17.4648 7.81912 16.6492 8.40336C16.1289 8.7684 15.8192 9.36407 15.8192 9.99961C15.8192 10.6351 16.1289 11.2308 16.6492 11.5959C17.4648 12.1801 17.704 13.2879 17.2021 14.1566C16.7002 15.0253 15.621 15.3714 14.7075 14.9567C14.1312 14.6882 13.4602 14.7176 12.9096 15.0353C12.3589 15.353 11.9977 15.9192 11.9417 16.5525C11.8465 17.5535 11.0059 18.318 10.0004 18.318C8.99494 18.318 8.15431 17.5535 8.05917 16.5525C8.00326 15.919 7.64193 15.3526 7.09103 15.0348C6.54013 14.717 5.86888 14.6879 5.2925 14.9567C4.37896 15.3714 3.29979 15.0253 2.7979 14.1566C2.29601 13.2879 2.53521 12.1801 3.35083 11.5959C3.87108 11.2308 4.1808 10.6351 4.1808 9.99961C4.1808 9.36407 3.87108 8.7684 3.35083 8.40336C2.5364 7.81886 2.29783 6.71207 2.79915 5.84395C3.30048 4.97584 4.37834 4.62927 5.29167 5.04252C5.86796 5.31098 6.53895 5.28165 7.08961 4.96392C7.64028 4.6462 8.00149 4.07998 8.0575 3.44669" stroke="#E6EEF8" stroke-width="1.66667" stroke-linecap="round" stroke-linejoin="round"/>
<path d="M7.5 10C7.5 11.3798 8.62021 12.5 10 12.5C11.3798 12.5 12.5 11.3798 12.5 10C12.5 8.62021 11.3798 7.5 10 7.5C8.62021 7.5 7.5 8.62021 7.5 10V10" stroke="#E6EEF8" stroke-width="1.66667" stroke-linecap="round" stroke-linejoin="round"/>
</svg>
